<?xml version="1.0" encoding="UTF-8"?>
<!DOCTYPE svg PUBLIC "-//W3C//DTD SVG 1.1//EN" "http://www.w3.org/Graphics/SVG/1.1/DTD/svg11.dtd">
<svg xmlns="http://www.w3.org/2000/svg" version="1.1" width="1024px" height="1024px" style="shape-rendering:geometricPrecision; text-rendering:geometricPrecision; image-rendering:optimizeQuality; fill-rule:evenodd; clip-rule:evenodd" xmlns:xlink="http://www.w3.org/1999/xlink">
	<g>
		<path style="opacity:0.995" fill="#084ca8" d="M 462.5,43.5 C 483.408,40.7336 499.574,48.0669 511,65.5C 516.736,79.5405 522.569,93.5405 528.5,107.5C 628.793,104.989 718.793,133.823 798.5,194C 751.99,195.392 708.49,207.559 668,230.5C 632.424,215.785 595.424,207.452 557,205.5C 552.624,215.769 545.791,223.936 536.5,230C 500.281,245.276 463.948,260.276 427.5,275C 404.885,281.793 386.385,275.96 372,257.5C 307.319,301.207 263.653,360.54 241,435.5C 240.333,436.833 240.333,438.167 241,439.5C 255.971,453.471 270.638,467.804 285,482.5C 297.255,499.915 297.589,517.582 286,535.5C 269.154,553.012 252.321,570.512 235.5,588C 243.926,625.671 258.26,660.837 278.5,693.5C 255.101,717.23 232.434,741.563 210.5,766.5C 174.438,717.013 150.271,662.013 138,601.5C 114.613,579.446 91.9459,556.779 70,533.5C 63.9123,521.268 62.9123,508.601 67,495.5C 68.9144,490.665 71.5811,486.331 75,482.5C 98.6667,458.167 122.333,433.833 146,409.5C 178.137,304.066 240.97,222.566 334.5,165C 328.528,154.056 324.861,142.389 323.5,130C 324.5,111.359 333.166,97.6923 349.5,89C 387.238,73.7058 424.904,58.5392 462.5,43.5 Z" />
	</g>
	<g>
		<path style="opacity:1" fill="#fdfdfe" d="M 447.5,111.5 C 457.549,109.897 465.382,113.231 471,121.5C 477,136.167 483,150.833 489,165.5C 492.525,176.931 489.025,185.431 478.5,191C 463.58,197.196 448.58,203.196 433.5,209C 423.12,211.438 415.62,207.938 411,198.5C 405,183.833 399,169.167 393,154.5C 389.89,144.494 392.724,136.661 401.5,131C 417.038,124.724 432.372,118.224 447.5,111.5 Z" />
	</g>
	<g>
		<path style="opacity:0.997" fill="#e02b19" d="M 784.5,219.5 C 794.506,219.334 804.506,219.5 814.5,220C 824.567,220.847 833.9,223.847 842.5,229C 850.298,235.758 855.132,244.258 857,254.5C 860.168,276.322 859.168,297.989 854,319.5C 846.126,351.454 834.126,381.787 818,410.5C 792.405,455.02 762.405,496.353 728,534.5C 705,560.167 680.667,584.5 655,607.5C 656.882,645.97 647.215,681.303 626,713.5C 612.088,734.245 595.254,752.245 575.5,767.5C 575.069,690.176 547.402,624.676 492.5,571C 440.635,525.645 379.969,502.811 310.5,502.5C 343.746,459.116 387.412,432.95 441.5,424C 451.167,423.667 460.833,423.333 470.5,423C 512.563,376.585 558.563,334.918 608.5,298C 644.646,271.755 683.646,250.421 725.5,234C 744.799,227.091 764.466,222.258 784.5,219.5 Z M 721.5,306.5 C 744.234,305.774 760.067,315.774 769,336.5C 775.171,358.656 769.004,376.489 750.5,390C 726.279,401.984 705.779,397.484 689,376.5C 675.872,351.131 680.705,329.964 703.5,313C 709.301,309.903 715.301,307.736 721.5,306.5 Z" />
	</g>
	<g>
		<path style="opacity:0.99" fill="#084ca8" d="M 524.5,285.5 C 538.504,285.333 552.504,285.5 566.5,286C 570.584,286.231 574.584,286.898 578.5,288C 536.679,321.482 497.679,358.149 461.5,398C 419.037,396.379 380.703,408.045 346.5,433C 336.411,440.418 326.911,448.585 318,457.5C 326.897,423.37 342.897,393.037 366,366.5C 408.554,319.473 461.387,292.473 524.5,285.5 Z" />
	</g>
	<g>
		<path style="opacity:1" fill="#fdfdfe" d="M 172.5,462.5 C 179.473,461.536 185.807,463.036 191.5,467C 204.065,478.895 215.898,491.395 227,504.5C 228.769,511.789 227.102,518.123 222,523.5C 211.167,534.333 200.333,545.167 189.5,556C 182.806,559.277 176.139,559.277 169.5,556C 158.304,544.47 146.804,533.303 135,522.5C 129.643,515.355 129.309,508.022 134,500.5C 145.511,489.289 156.678,477.789 167.5,466C 169.346,464.97 171.013,463.804 172.5,462.5 Z" />
	</g>
	<g>
		<path style="opacity:0.995" fill="#084ca8" d="M 808.5,475.5 C 853.835,475.333 899.168,475.5 944.5,476C 951.428,478.594 955.928,483.427 958,490.5C 962.062,551.283 954.728,610.616 936,668.5C 917.937,717.325 891.27,760.658 856,798.5C 828.001,829.191 796.501,855.357 761.5,877C 763.859,883.745 766.026,890.578 768,897.5C 771.183,919.973 762.683,936.139 742.5,946C 707.5,957 672.5,968 637.5,979C 607.224,981.425 589.39,967.591 584,937.5C 508.339,942.191 435.839,928.691 366.5,897C 348.513,888.011 331.18,878.011 314.5,867C 326.167,856.667 337.833,846.333 349.5,836C 362.347,822.986 375.347,810.153 388.5,797.5C 440.207,826.978 495.874,840.978 555.5,839.5C 555.563,820.614 564.23,807.448 581.5,800C 616.5,789 651.5,778 686.5,767C 703.033,764.29 717.2,768.79 729,780.5C 801.117,728.325 844.284,657.992 858.5,569.5C 831.825,569.167 805.158,569.5 778.5,570.5C 760.033,649.452 714.199,706.118 641,740.5C 640.685,739.092 641.018,737.759 642,736.5C 666.016,703.121 677.35,665.788 676,624.5C 725.515,579.177 769.681,529.511 808.5,475.5 Z" />
	</g>
	<g>
		<path style="opacity:0.988" fill="#084ca8" d="M 308.5,524.5 C 338.433,524.767 367.433,530.1 395.5,540.5C 398.367,557.97 403.7,574.636 411.5,590.5C 399.9,593.8 389.234,598.967 379.5,606C 365.908,617.047 352.408,628.214 339,639.5C 318.369,603.978 308.202,565.645 308.5,524.5 Z" />
	</g>
	<g>
		<path style="opacity:0.989" fill="#fc9f3e" d="M 413.5,610.5 C 445.564,609.063 463.897,624.23 468.5,656C 467.705,668.731 463.205,679.898 455,689.5C 410.391,747.114 358.391,796.78 299,838.5C 298.833,838.167 298.667,837.833 298.5,837.5C 306.6,822.633 314.1,807.633 321,792.5C 283.745,818.877 246.579,845.377 209.5,872C 206.966,873.934 204.299,875.268 201.5,876C 229.833,836.333 258.167,796.667 286.5,757C 271.367,763.9 256.367,771.4 241.5,779.5C 240.479,778.998 240.312,778.332 241,777.5C 268.824,737.123 300.991,700.289 337.5,667C 355.128,651.192 373.128,635.859 391.5,621C 398.266,616.115 405.6,612.615 413.5,610.5 Z" />
	</g>
	<g>
		<path style="opacity:0.988" fill="#084ca8" d="M 489.5,662.5 C 504.699,668.074 520.366,671.741 536.5,673.5C 547.172,701.525 552.838,730.525 553.5,760.5C 514.777,761.557 478.11,753.557 443.5,736.5C 455,722.167 466.5,707.833 478,693.5C 483.906,683.949 487.74,673.615 489.5,662.5 Z" />
	</g>
	<g>
		<path style="opacity:1" fill="#fdfdfe" d="M 669.5,828.5 C 679.141,826.539 686.641,829.539 692,837.5C 696.864,851.76 701.531,866.094 706,880.5C 708.821,891.746 704.988,899.58 694.5,904C 680.439,908.131 666.439,912.465 652.5,917C 643.499,919.246 636.666,916.413 632,908.5C 627.399,894.197 622.899,879.864 618.5,865.5C 615.135,854.737 618.469,846.903 628.5,842C 642.374,837.764 656.041,833.264 669.5,828.5 Z" />
	</g>
</svg>
